<svg width="256px" height="256px" viewBox="-6.24 -6.24 36.48 36.48" fill="none" xmlns="http://www.w3.org/2000/svg" transform="matrix(1, 0, 0, -1, 0, 0)rotate(0)"><g id="SVGRepo_bgCarrier" stroke-width="0"><path transform="translate(-6.24, -6.24), scale(2.28)" fill="#e47eec" d="M9.166.33a2.25 2.25 0 00-2.332 0l-5.25 3.182A2.25 2.25 0 00.5 5.436v5.128a2.25 2.25 0 001.084 1.924l5.25 3.182a2.25 2.25 0 002.332 0l5.25-3.182a2.25 2.25 0 001.084-1.924V5.436a2.25 2.25 0 00-1.084-1.924L9.166.33z" strokewidth="0"></path></g><g id="SVGRepo_tracerCarrier" stroke-linecap="round" stroke-linejoin="round"></g><g id="SVGRepo_iconCarrier"> <path d="M9 9H15M9 9V15M9 9V6C9 4.34315 7.65685 3 6 3C4.34315 3 3 4.34315 3 6C3 7.65685 4.34315 9 6 9H9ZM15 9V15M15 9H18C19.6569 9 21 7.65685 21 6C21 4.34315 19.6569 3 18 3C16.3431 3 15 4.34315 15 6V9ZM15 15H9M15 15V18C15 19.6569 16.3431 21 18 21C19.6569 21 21 19.6569 21 18C21 16.3431 19.6569 15 18 15H15ZM9 15L6 15C4.34315 15 3 16.3431 3 18C3 19.6569 4.34315 21 6 21C7.65685 21 9 19.6569 9 18L9 15Z" stroke="#ffffff" stroke-width="1.584"></path> </g></svg>